<svg xmlns="http://www.w3.org/2000/svg" width="101" height="33" viewBox="0 0 101 33">
    <g fill="none">
        <path fill="#FFF" d="M8.976 19.745L4.481 15.23 8.996 10.735 9.007 6.254 2.246 12.984 0 15.219 2.235 17.465 8.966 24.226zM38.225 10.762L42.678 15.312 38.129 19.769 38.084 24.25 44.897 17.578 47.163 15.36 44.945 13.094 38.269 6.281z"/>
        <path fill="#E20074" d="M39.77 2.331s-5.327-1.83-7.964 2.98c-2.32 4.23-3.87 8.962-5.859 13.364-2.122 4.7-5.328 14.472-11.605 13.896-1.506-.134-6.398-2.273-6.858-3.909 1.308.458 2.671.74 4.053.837 5.883.254 8.204-7.495 10.286-11.918 1.515-3.218 2.977-6.463 4.385-9.737 1.22-2.756 2.197-6.017 5.208-7.114 2.828-1.025 5.904.148 8.355 1.601z"/>
        <path fill="#FFF" d="M17.694 17.606L19.123 17.606 19.123 19.036 17.694 19.036z" transform="rotate(-66.1 18.408 18.32)"/>
        <path fill="#FFF" d="M19.316 13.949L20.745 13.949 20.745 15.378 19.316 15.378z" transform="rotate(-66.1 20.03 14.664)"/>
        <path fill="#FFF" d="M20.935 10.287L22.364 10.287 22.364 11.716 20.935 11.716z" transform="rotate(-66.1 21.65 11.002)"/>
        <g fill="#FFF">
            <path d="M0 11.732l1.85-2.057c.76.839 1.504 1.336 2.436 1.336 1.105 0 1.79-.666 1.794-2.21V.212H9.09v8.724c0 1.567-.462 2.742-1.262 3.56-.799.82-2.02 1.235-3.466 1.235-1.684.043-3.294-.694-4.36-1.998zM14.651.133h2.703l5.7 13.436H19.98l-1.214-2.993h-5.637l-1.223 2.99H8.92L14.651.132zm3.076 7.835l-1.767-4.31-1.779 4.31h3.546zM23.575 11.344L30.916 2.832 23.81 2.832 23.81.262 34.689.262 34.689 2.491 27.344 11.007 34.677 11.007 34.677 13.577 23.571 13.577zM35.727 11.36L43.091 2.832 35.985 2.832 35.985.262 46.864.262 46.864 2.491 39.499 11.019 46.832 11.019 46.832 13.589 35.727 13.589z" transform="translate(53.653 9.5)"/>
        </g>
    </g>
</svg>
